<svg width="27" height="27" viewBox="0 0 27 27" fill="none" xmlns="http://www.w3.org/2000/svg">
<rect x="0.5" y="26.5" width="26" height="26" rx="13" transform="rotate(-90 0.5 26.5)" fill="#FAF7FF" stroke="#D6C1F8"/>
<path d="M12.6453 19.7465V7.25347C12.6453 7.04985 12.5176 6.86637 12.3216 6.78827C12.1258 6.7104 11.9001 6.75359 11.75 6.89747L8.2537 10.2539C8.04882 10.4506 8.04882 10.7692 8.2537 10.9659C8.45835 11.1626 8.7905 11.1626 8.99539 10.9659L11.5964 8.46895V19.7465C11.5964 20.0244 11.8311 20.25 12.1209 20.25C12.4106 20.25 12.6453 20.0244 12.6453 19.7465ZM14.3548 7.25347V19.7465C14.3548 19.9501 14.4825 20.1336 14.6786 20.2117C14.8744 20.2896 15.1 20.2464 15.2501 20.1025L18.7464 16.7461C18.8488 16.6479 18.9 16.519 18.9 16.3901C18.9 16.2612 18.8488 16.1326 18.7464 16.0341C18.5418 15.8374 18.2096 15.8374 18.0047 16.0341L15.4037 18.5311V7.25347C15.4037 6.97556 15.169 6.75001 14.8793 6.75001C14.5895 6.75001 14.3548 6.97556 14.3548 7.25347Z" fill="#454545"/>
</svg>
